<svg width="25" height="24" viewBox="0 0 25 24" fill="none" xmlns="http://www.w3.org/2000/svg">
<path d="M12.3495 5.62598C11.0884 5.62574 9.85553 5.9995 8.80681 6.69997C7.7581 7.40045 6.94066 8.39619 6.45788 9.56126C5.9751 10.7263 5.84865 12.0084 6.09454 13.2453C6.34042 14.4823 6.94759 15.6185 7.83926 16.5104C8.73093 17.4022 9.86705 18.0096 11.1039 18.2557C12.3408 18.5019 13.6229 18.3757 14.7881 17.8931C15.9532 17.4106 16.9492 16.5933 17.6498 15.5448C18.3505 14.4962 18.7245 13.2634 18.7245 12.0023C18.7228 10.3119 18.0506 8.6913 16.8555 7.49593C15.6604 6.30056 14.0399 5.62806 12.3495 5.62598V5.62598Z" fill="#21E786"/>
<path d="M22.4848 10.877H20.986C20.6876 10.877 20.4014 10.9955 20.1904 11.2065C19.9794 11.4175 19.8608 11.7037 19.8608 12.0021C19.8608 12.3006 19.9794 12.5868 20.1904 12.7978C20.4014 13.0088 20.6876 13.1273 20.986 13.1273H22.4848C22.7832 13.1273 23.0694 13.0088 23.2804 12.7978C23.4914 12.5868 23.61 12.3006 23.61 12.0021C23.61 11.7037 23.4914 11.4175 23.2804 11.2065C23.0694 10.9955 22.7832 10.877 22.4848 10.877V10.877Z" fill="#21E786"/>
<path d="M12.3495 19.5C12.0513 19.5004 11.7655 19.6192 11.5547 19.8301C11.3439 20.041 11.2254 20.327 11.2251 20.6252V22.1254C11.2251 22.4236 11.3436 22.7095 11.5544 22.9204C11.7653 23.1313 12.0513 23.2497 12.3495 23.2497C12.6477 23.2497 12.9336 23.1313 13.1445 22.9204C13.3554 22.7095 13.4738 22.4236 13.4738 22.1254V20.6252C13.4736 20.327 13.3551 20.0411 13.1443 19.8301C12.9336 19.6192 12.6477 19.5005 12.3495 19.5V19.5Z" fill="#21E786"/>
<path d="M4.85657 12.0021C4.85631 11.7039 4.73778 11.418 4.52699 11.2071C4.31619 10.9961 4.03033 10.8774 3.73212 10.877H2.23359C1.93517 10.877 1.64897 10.9955 1.43796 11.2065C1.22694 11.4175 1.1084 11.7037 1.1084 12.0021C1.1084 12.3006 1.22694 12.5868 1.43796 12.7978C1.64897 13.0088 1.93517 13.1273 2.23359 13.1273H3.73212C4.03033 13.1269 4.31619 13.0082 4.52699 12.7972C4.73779 12.5863 4.85631 12.3003 4.85657 12.0021V12.0021Z" fill="#21E786"/>
<path d="M12.3499 4.5007C12.6481 4.50025 12.9339 4.38154 13.1447 4.1706C13.3555 3.95967 13.474 3.67374 13.4743 3.37553V1.87534C13.4743 1.57714 13.3558 1.29115 13.145 1.08029C12.9341 0.869435 12.6481 0.750977 12.3499 0.750977C12.0517 0.750977 11.7658 0.869435 11.5549 1.08029C11.344 1.29115 11.2256 1.57714 11.2256 1.87534V3.37553C11.2258 3.67372 11.3443 3.95965 11.5551 4.17058C11.7658 4.38152 12.0517 4.50024 12.3499 4.5007Z" fill="#21E786"/>
<path d="M19.2447 6.69756L20.3055 5.63679C20.4102 5.53245 20.4934 5.40849 20.5501 5.27199C20.6069 5.13549 20.6362 4.98913 20.6364 4.84129C20.6365 4.69345 20.6075 4.54704 20.551 4.41042C20.4945 4.27381 20.4116 4.14968 20.3071 4.04514C20.2025 3.9406 20.0784 3.85771 19.9418 3.8012C19.8052 3.74469 19.6587 3.71568 19.5109 3.71582C19.3631 3.71597 19.2167 3.74526 19.0802 3.80204C18.9437 3.85882 18.8197 3.94196 18.7154 4.0467L17.6546 5.1075C17.5499 5.21183 17.4667 5.3358 17.41 5.4723C17.3532 5.6088 17.3239 5.75516 17.3237 5.903C17.3236 6.05084 17.3526 6.19725 17.4091 6.33387C17.4656 6.47048 17.5485 6.59461 17.6531 6.69914C17.7576 6.80368 17.8817 6.88657 18.0183 6.94308C18.1549 6.99959 18.3014 7.0286 18.4492 7.02845C18.597 7.02831 18.7434 6.99901 18.8799 6.94223C19.0164 6.88545 19.1404 6.80231 19.2447 6.69756V6.69756Z" fill="#21E786"/>
<path d="M19.2445 17.3073C19.1402 17.2026 19.0162 17.1195 18.8797 17.0627C18.7432 17.006 18.5969 16.9767 18.4491 16.9766C18.3013 16.9764 18.1549 17.0055 18.0183 17.062C17.8817 17.1185 17.7576 17.2014 17.653 17.3059C17.5485 17.4104 17.4656 17.5345 17.4091 17.6711C17.3526 17.8077 17.3236 17.9541 17.3237 18.1019C17.3239 18.2497 17.3531 18.3961 17.4099 18.5326C17.4666 18.6691 17.5497 18.793 17.6544 18.8974L18.7152 19.9581C18.8196 20.0628 18.9435 20.146 19.08 20.2027C19.2165 20.2594 19.3629 20.2887 19.5107 20.2889C19.6585 20.289 19.8049 20.26 19.9415 20.2035C20.0781 20.1469 20.2022 20.0641 20.3067 19.9595C20.4112 19.855 20.4941 19.7309 20.5506 19.5943C20.6071 19.4577 20.6362 19.3113 20.636 19.1635C20.6359 19.0157 20.6066 18.8693 20.5499 18.7329C20.4931 18.5964 20.41 18.4724 20.3053 18.3681L19.2445 17.3073Z" fill="#21E786"/>
<path d="M5.45432 17.3073L4.39354 18.3681C4.28876 18.4724 4.20559 18.5964 4.14879 18.7329C4.09198 18.8694 4.06266 19.0158 4.0625 19.1636C4.06234 19.3115 4.09134 19.4579 4.14785 19.5945C4.20436 19.7312 4.28726 19.8553 4.39181 19.9599C4.49636 20.0644 4.62051 20.1473 4.75714 20.2038C4.89377 20.2603 5.04021 20.2893 5.18807 20.2892C5.33592 20.289 5.48229 20.2597 5.6188 20.2029C5.75531 20.1461 5.87928 20.0629 5.9836 19.9581L7.0444 18.8974C7.14911 18.793 7.23221 18.6691 7.28896 18.5326C7.34571 18.3961 7.37499 18.2497 7.37512 18.1019C7.37525 17.9541 7.34623 17.8077 7.28972 17.6711C7.23321 17.5345 7.15032 17.4104 7.0458 17.3059C6.94127 17.2014 6.81716 17.1185 6.68057 17.062C6.54398 17.0055 6.39759 16.9764 6.24977 16.9766C6.10195 16.9767 5.95561 17.006 5.81911 17.0627C5.68262 17.1195 5.55866 17.2026 5.45432 17.3073Z" fill="#21E786"/>
<path d="M5.45435 6.69727C5.55872 6.80182 5.68268 6.88478 5.81913 6.9414C5.95558 6.99802 6.10185 7.0272 6.24959 7.02726C6.39732 7.02732 6.54362 6.99827 6.68012 6.94177C6.81662 6.88526 6.94064 6.80241 7.04511 6.69794C7.14957 6.59348 7.23242 6.46945 7.28893 6.33295C7.34544 6.19645 7.37449 6.05016 7.37443 5.90242C7.37436 5.75469 7.34519 5.60842 7.28856 5.47196C7.23194 5.33551 7.14898 5.21156 7.04443 5.10718L5.98363 4.04638C5.87933 3.9415 5.75536 3.85822 5.61882 3.80133C5.48228 3.74444 5.33586 3.71505 5.18794 3.71484C5.04002 3.71464 4.89352 3.74362 4.75682 3.80013C4.62012 3.85664 4.49592 3.93957 4.39133 4.04417C4.28673 4.14876 4.20381 4.27296 4.1473 4.40966C4.09079 4.54636 4.06181 4.69286 4.06201 4.84078C4.06222 4.9887 4.09161 5.13512 4.1485 5.27166C4.2054 5.4082 4.28867 5.53217 4.39356 5.63647L5.45435 6.69727Z" fill="#21E786"/>
</svg>
